<svg xmlns="http://www.w3.org/2000/svg" width="120" height="40" viewBox="0 0 120 40"><g transform="translate(-230 -10)"><g transform="translate(230 10)"><rect width="120" height="40" fill="#393e46"/><g transform="translate(21.445 10.439)"><path d="M269.986,151.445h-3.871V132.916h8.465c3.587,0,5.755,2.3,5.755,5.935,0,1.677-.929,5.91-5.91,5.91h-4.439Zm3.587-9.884c2.89,0,2.89-2.065,2.89-2.89,0-1.806-1.007-2.555-3.407-2.555h-3.071v5.445h3.587Z" transform="translate(-266.115 -132.684)" fill="#fff"/><path d="M478.26,188.985h3.458v2.374h.051c.749-1.394,1.574-2.736,3.768-2.736a6.322,6.322,0,0,1,.7.052v3.665a6.747,6.747,0,0,0-1.032-.052c-2.813,0-3.329,1.755-3.329,3.277v7.149H478.26Z" transform="translate(-461.357 -183.953)" fill="#fff"/><path d="M595.078,203.076c-3.69,0-7.019-2.271-7.019-7.226s3.329-7.226,7.019-7.226,7.019,2.271,7.019,7.226S598.768,203.076,595.078,203.076Zm0-11.407c-2.787,0-3.3,2.426-3.3,4.181s.516,4.181,3.3,4.181,3.3-2.426,3.3-4.181S597.865,191.669,595.078,191.669Z" transform="translate(-562.406 -183.953)" fill="#fff"/><path d="M783.778,148.762h-3.613V137.613h-1.987v-2.581h1.987v-1.11c0-2.839,1.548-3.923,4.026-3.923,1.058,0,1.548.026,1.858.052v2.916h-1.006c-1.239,0-1.265.387-1.265,1.523v.542h2.349v2.581h-2.349v11.149Z" transform="translate(-737.378 -130)" fill="#fff"/><path d="M908.753,134H905.14v-3.355h3.613V134Zm0,1.626v13.729H905.14V135.63Z" transform="translate(-854.223 -130.597)" fill="#fff"/><path d="M998.789,151.445h-3.613V132.916h3.613Z" transform="translate(-937.086 -132.684)" fill="#fff"/><path d="M1083.2,198.689a5.946,5.946,0,0,1-6.039,4.387c-3.871,0-6.839-1.858-6.839-7.51,0-1.652.568-6.942,6.581-6.942,2.71,0,6.452,1.29,6.452,7.561v.645h-9.42c.1,1.032.31,3.355,3.226,3.355a2.32,2.32,0,0,0,2.323-1.5Zm-3.562-4.206c-.206-2.219-1.626-2.89-2.787-2.89-1.7,0-2.607,1.084-2.813,2.89Z" transform="translate(-1006.244 -183.953)" fill="#fff"/></g></g><g transform="translate(230 10)" fill="#fff" stroke="#807b7b" stroke-width="0.5"><rect width="120" height="40" stroke="none"/><rect x="0.25" y="0.25" width="119.5" height="39.5" fill="none"/></g><text transform="translate(291 18)" fill="#a30f0c" stroke="#a30f0c" stroke-linecap="round" stroke-linejoin="round" stroke-width="1" font-size="20" font-family="TsukuARdGothic-Regular, Tsukushi A Round Gothic"><tspan x="0" y="18">sweet</tspan></text><text transform="translate(235 19)" fill="#807b7b" stroke="#807b7b" stroke-linecap="round" stroke-linejoin="round" stroke-width="1" font-size="20" font-family="TsukuARdGothic-Regular, Tsukushi A Round Gothic"><tspan x="0" y="18">と</tspan></text><text transform="matrix(0.914, 0.407, -0.407, 0.914, 256.932, 15.797)" fill="#a30f0c" stroke="#a30f0c" stroke-linecap="round" stroke-linejoin="round" stroke-width="1" font-size="20" font-family="TsukuARdGothic-Regular, Tsukushi A Round Gothic"><tspan x="0" y="18">り</tspan></text><text transform="matrix(0.914, 0.407, -0.407, 0.914, 273.135, 16.797)" fill="#807b7b" stroke="#807b7b" stroke-linecap="round" stroke-linejoin="round" stroke-width="1" font-size="20" font-family="TsukuARdGothic-Regular, Tsukushi A Round Gothic"><tspan x="0" y="18">こ</tspan></text></g></svg>